HIERARCHY
ROOT hip
{
  OFFSET 0 0 0
  CHANNELS 6 Xposition Yposition Zposition Zrotation Yrotation Xrotation
  JOINT abdomen
  {
    OFFSET 0 20.6881 -0.73152
    CHANNELS 3 Zrotation Xrotation Yrotation
    JOINT chest
    {
      OFFSET 0 11.7043 -0.48768
      CHANNELS 3 Zrotation Xrotation Yrotation
      JOINT neck
      {
        OFFSET 0 22.1894 -2.19456
        CHANNELS 3 Zrotation Xrotation Yrotation
        JOINT head
        {
          OFFSET -0.24384 7.07133 1.2192
          CHANNELS 3 Zrotation Xrotation Yrotation
          JOINT leftEye
          {
            OFFSET 4.14528 8.04674 8.04672
            CHANNELS 3 Zrotation Xrotation Yrotation
            End Site
            {
              OFFSET 1 0 0
            }
          }
          JOINT rightEye
          {
            OFFSET -3.6576 8.04674 8.04672
            CHANNELS 3 Zrotation Xrotation Yrotation
            End Site
            {
              OFFSET 1 0 0
            }
          }
        }
      }
      JOINT rCollar
      {
        OFFSET -2.68224 19.2634 -4.8768
        CHANNELS 3 Zrotation Xrotation Yrotation
        JOINT rShldr
        {
          OFFSET -8.77824 -1.95073 1.46304
          CHANNELS 3 Zrotation Xrotation Yrotation
          JOINT rForeArm
          {
            OFFSET -28.1742 -1.7115 0.48768
            CHANNELS 3 Zrotation Xrotation Yrotation
            JOINT rHand
            {
              OFFSET -22.5879 0.773209 7.07136
              CHANNELS 3 Zrotation Xrotation Yrotation
              JOINT rThumb1
              {
                OFFSET -1.2192 -0.487915 3.41376
                CHANNELS 3 Zrotation Xrotation Yrotation
                JOINT rThumb2
                {
                  OFFSET -3.37035 -0.52449 3.41376
                  CHANNELS 3 Zrotation Xrotation Yrotation
                  End Site
                  {
                    OFFSET -1.78271 -1.18214 1.43049
                  }
                }
              }
              JOINT rIndex1
              {
                OFFSET -7.75947 0.938293 5.60832
                CHANNELS 3 Zrotation Xrotation Yrotation
                JOINT rIndex2
                {
                  OFFSET -2.54057 -0.884171 1.56538
                  CHANNELS 3 Zrotation Xrotation Yrotation
                  End Site
                  {
                    OFFSET -1.62519 -0.234802 1.16502
                  }
                }
              }
              JOINT rMid1
              {
                OFFSET -8.24714 1.18213 3.41376
                CHANNELS 3 Zrotation Xrotation Yrotation
                JOINT rMid2
                {
                  OFFSET -3.10165 -0.590103 1.0647
                  CHANNELS 3 Zrotation Xrotation Yrotation
                  End Site
                  {
                    OFFSET -2.48547 -0.328903 0.83742
                  }
                }
              }
              JOINT rRing1
              {
                OFFSET -8.82822 0.546677 1.51678
                CHANNELS 3 Zrotation Xrotation Yrotation
                JOINT rRing2
                {
                  OFFSET -2.60934 -0.819778 -0.0198488
                  CHANNELS 3 Zrotation Xrotation Yrotation
                  End Site
                  {
                    OFFSET -2.33842 -0.294052 0.168128
                  }
                }
              }
              JOINT rPinky1
              {
                OFFSET -8.27202 -0.0477905 -0.4584
                CHANNELS 3 Zrotation Xrotation Yrotation
                JOINT rPinky2
                {
                  OFFSET -1.82734 -0.647385 -0.700984
                  CHANNELS 3 Zrotation Xrotation Yrotation
                  End Site
                  {
                    OFFSET -1.69225 -0.51767 -0.607171
                  }
                }
              }
            }
          }
        }
      }
      JOINT lCollar
      {
        OFFSET 2.68224 19.2634 -4.8768
        CHANNELS 3 Zrotation Xrotation Yrotation
        JOINT lShldr
        {
          OFFSET 8.77824 -1.95073 1.46304
          CHANNELS 3 Zrotation Xrotation Yrotation
          JOINT lForeArm
          {
            OFFSET 28.1742 -1.7115 0.48768
            CHANNELS 3 Zrotation Xrotation Yrotation
            JOINT lHand
            {
              OFFSET 22.5879 0.773209 7.07136
              CHANNELS 3 Zrotation Xrotation Yrotation
              JOINT lThumb1
              {
                OFFSET 1.2192 -0.487915 3.41376
                CHANNELS 3 Zrotation Xrotation Yrotation
                JOINT lThumb2
                {
                  OFFSET 3.37035 -0.52449 3.41376
                  CHANNELS 3 Zrotation Xrotation Yrotation
                  End Site
                  {
                    OFFSET 1.78271 -1.18214 1.43049
                  }
                }
              }
              JOINT lIndex1
              {
                OFFSET 7.75947 0.938293 5.60832
                CHANNELS 3 Zrotation Xrotation Yrotation
                JOINT lIndex2
                {
                  OFFSET 2.54057 -0.884171 1.56538
                  CHANNELS 3 Zrotation Xrotation Yrotation
                  End Site
                  {
                    OFFSET 1.62519 -0.234802 1.16502
                  }
                }
              }
              JOINT lMid1
              {
                OFFSET 8.24714 1.18213 3.41376
                CHANNELS 3 Zrotation Xrotation Yrotation
                JOINT lMid2
                {
                  OFFSET 3.10165 -0.590103 1.0647
                  CHANNELS 3 Zrotation Xrotation Yrotation
                  End Site
                  {
                    OFFSET 2.48547 -0.328903 0.83742
                  }
                }
              }
              JOINT lRing1
              {
                OFFSET 8.82822 0.546677 1.51678
                CHANNELS 3 Zrotation Xrotation Yrotation
                JOINT lRing2
                {
                  OFFSET 2.60934 -0.819778 -0.0198488
                  CHANNELS 3 Zrotation Xrotation Yrotation
                  End Site
                  {
                    OFFSET 2.33842 -0.294052 0.168128
                  }
                }
              }
              JOINT lPinky1
              {
                OFFSET 8.27202 -0.0477905 -0.4584
                CHANNELS 3 Zrotation Xrotation Yrotation
                JOINT lPinky2
                {
                  OFFSET 1.82734 -0.647385 -0.700984
                  CHANNELS 3 Zrotation Xrotation Yrotation
                  End Site
                  {
                    OFFSET 1.69225 -0.51767 -0.607171
                  }
                }
              }
            }
          }
        }
      }
    }
  }
  JOINT rButtock
  {
    OFFSET -8.77824 4.35084 1.2192
    CHANNELS 3 Zrotation Xrotation Yrotation
    JOINT rThigh
    {
      OFFSET 0 -1.70687 -2.19456
      CHANNELS 3 Zrotation Xrotation Yrotation
      JOINT rShin
      {
        OFFSET 0 -36.8199 0.73152
        CHANNELS 3 Zrotation Xrotation Yrotation
        JOINT rFoot
        {
          OFFSET 0.73152 -45.1104 -5.12064
          CHANNELS 3 Zrotation Xrotation Yrotation
          End Site
          {
            OFFSET -1.1221 -3.69964 12.103
          }
        }
      }
    }
  }
  JOINT lButtock
  {
    OFFSET 8.77824 4.35084 1.2192
    CHANNELS 3 Zrotation Xrotation Yrotation
    JOINT lThigh
    {
      OFFSET 0 -1.70687 -2.19456
      CHANNELS 3 Zrotation Xrotation Yrotation
      JOINT lShin
      {
        OFFSET 0 -36.8199 0.73152
        CHANNELS 3 Zrotation Xrotation Yrotation
        JOINT lFoot
        {
          OFFSET -0.73152 -45.1104 -5.12064
          CHANNELS 3 Zrotation Xrotation Yrotation
          End Site
          {
            OFFSET 1.1221 -3.69964 12.103
          }
        }
      }
    }
  }
}
MOTION
Frames:	4
Frame Time:	0.00833333
-160.102 85.2982 -77.5819 0.0 0.0 0.0 0.984359 -0.00436092 0.0272515 0.271546 -0.00455341 0.0470447 -2.29399e-14 -7.95139e-16 3.72721e-17 -6.93634e-14 3.18055e-15 1.58407e-16 -0.0 0.0 0.0 -0.0 0.0 0.0 -1.14814e-14 1.26182e-17 2.48481e-16 -2.40232e-13 -4.34841e-17 5.96354e-16 -4.18715e-12 1.26348e-12 6.67917e-14 -4.79241e-11 -1.19484e-12 -4.13472e-14 -1.13052e-10 1.5332e-13 7.95139e-14 -1.95244e-10 2.63986e-13 1.4074e-13 -1.13046e-10 1.53859e-13 6.67917e-14 7.73091 5.47488 0.417314 -1.13053e-10 1.53263e-13 7.95139e-14 2.90554 0.965183 0.102902 -1.13047e-10 1.53661e-13 8.34896e-14 10.2786 0.731801 0.0259123 -1.13061e-10 1.55052e-13 9.22361e-14 2.22167 -0.733487 -0.20892 -1.15783e-14 1.2424e-17 -1.49089e-16 -2.44548e-13 4.96962e-17 -9.93923e-16 -4.18685e-12 -1.2434e-12 3.18055e-14 -4.79364e-11 1.3083e-12 1.27222e-14 -1.13072e-10 1.43787e-13 8.5875e-14 -1.95267e-10 2.48083e-13 1.55052e-13 -1.13078e-10 1.43523e-13 9.22361e-14 -7.73091 5.47488 -0.417314 -1.13073e-10 1.43721e-13 8.26944e-14 -2.90554 0.965183 -0.102902 -1.1308e-10 1.4392e-13 8.34896e-14 -10.2786 0.731801 -0.0259123 -1.13071e-10 1.44318e-13 7.63333e-14 -2.22167 -0.733487 0.20892 -2.03217e-16 0.0 -3.88251e-19 1.24878 -5.45298 -0.109161 6.95517e-05 4.32235 0.0238831 -0.510624 1.12951 0.0812284 2.03217e-16 0.0 3.88251e-19 0.249623 -1.91924 0.012924 0.009284 -2.07855 0.0766874 0.496304 3.99654 -0.137952
-154.582 83.5321 -87.5791 162.751 74.8964 169.264 -0.826528 -2.31181 0.269392 1.21835 2.03981 0.0972079 -0.221055 -1.35858 1.08966 -1.17677 4.10099 2.79495 -0.0 0.0 0.0 -0.0 0.0 0.0 -2.69231e-14 -1.21844e-13 -7.70213e-14 22.3927 5.96005 0.455636 -4.20654 -1.90865 6.57309 0.0139929 -2.62688 -0.367788 2.19281e-10 -5.79247e-11 -5.83504e-10 3.8144e-10 -1.00296e-10 -1.00673e-09 2.19287e-10 -5.79236e-11 -5.83515e-10 7.73091 5.47488 0.417314 2.1928e-10 -5.79246e-11 -5.83505e-10 2.90554 0.965183 0.102902 2.19287e-10 -5.79244e-11 -5.83501e-10 10.2786 0.731801 0.0259123 2.19272e-10 -5.7923e-11 -5.83495e-10 2.22167 -0.733487 -0.20892 -2.69742e-14 -1.21845e-13 -7.73474e-14 -23.3554 9.25832 -2.44275 2.90797 -1.1369 -4.72258 -0.00359008 -1.34668 0.189081 -9.49825e-12 -3.15637e-10 7.43944e-10 -1.75076e-11 -5.46392e-10 1.2858e-09 -9.50486e-12 -3.15638e-10 7.43951e-10 -7.73091 5.47488 -0.417314 -9.4982e-12 -3.15639e-10 7.43937e-10 -2.90554 0.965183 -0.102902 -9.50696e-12 -3.15639e-10 7.43942e-10 -10.2786 0.731801 -0.0259123 -9.4974e-12 -3.15638e-10 7.43935e-10 -2.22167 -0.733487 0.20892 -2.03217e-16 0.0 -3.88251e-19 -0.590947 -8.11881 -0.637008 0.0249126 10.7547 0.160605 -1.04886 -4.89137 -3.94416 2.03217e-16 0.0 3.88251e-19 -0.679172 -5.35792 -1.28313 -0.0193629 5.77469 -0.0862679 0.811501 -2.13485 2.64646
-154.568 83.5215 -87.4933 163.756 75.1404 170.267 -2.73891 -4.74937 0.52001 2.2307 4.20711 0.147834 -0.391298 -2.7931 2.26097 -2.86988 8.41339 5.8322 -0.0 0.0 0.0 -0.0 0.0 0.0 -4.23931e-14 -2.50683e-13 -1.67613e-13 45.9482 12.2557 0.954337 -8.18204 -3.84361 13.5472 -0.0080119 -5.39039 -0.757332 5.80766e-10 -9.14578e-11 -1.23297e-09 1.0089e-09 -1.58315e-10 -2.12739e-09 5.80772e-10 -9.14562e-11 -1.23298e-09 7.73091 5.47488 0.417314 5.80766e-10 -9.14576e-11 -1.23297e-09 2.90554 0.965183 0.102902 5.80775e-10 -9.14576e-11 -1.23297e-09 10.2786 0.731801 0.0259123 5.80759e-10 -9.14561e-11 -1.23296e-09 2.22167 -0.733487 -0.20892 -4.23913e-14 -2.50684e-13 -1.67861e-13 -47.1514 18.9923 -5.24771 5.78002 -2.31355 -9.72251 0.00239177 -2.79524 0.392831 1.13893e-10 -6.88312e-10 1.53496e-09 1.94416e-10 -1.19154e-09 2.65296e-09 1.13885e-10 -6.88314e-10 1.53497e-09 -7.73091 5.47488 -0.417314 1.13894e-10 -6.88316e-10 1.53495e-09 -2.90554 0.965183 -0.102902 1.13883e-10 -6.88315e-10 1.53496e-09 -10.2786 0.731801 -0.0259123 1.13894e-10 -6.88315e-10 1.53495e-09 -2.22167 -0.733487 0.20892 -2.03217e-16 0.0 -3.88251e-19 -2.61014 -10.9311 -1.2245 0.0161354 17.5656 0.314301 -2.54892 -11.1717 -8.31842 2.03217e-16 0.0 3.88251e-19 -1.84803 -8.97628 -2.68087 4.59279e-05 14.0688 -0.265386 1.79627 -8.57625 5.64637
-154.562 83.5053 -87.3916 165.01 75.4078 171.563 -4.38942 -6.92618 0.758551 3.10116 6.12852 0.198484 -0.507898 -4.06984 3.27632 -4.74929 12.1846 8.55753 -0.0 0.0 0.0 -0.0 0.0 0.0 -5.78064e-14 -3.65558e-13 -2.31561e-13 66.8815 17.8755 1.42849 -11.3297 -5.42513 19.8007 -0.060009 -7.87934 -1.11271 8.83946e-10 -1.74081e-10 -1.75067e-09 1.53481e-09 -3.01417e-10 -3.02048e-09 8.83951e-10 -1.74079e-10 -1.75068e-09 7.73091 5.47488 0.417314 8.83947e-10 -1.7408e-10 -1.75067e-09 2.90554 0.965183 0.102902 8.83956e-10 -1.7408e-10 -1.75067e-09 10.2786 0.731801 0.0259123 8.83939e-10 -1.74079e-10 -1.75067e-09 2.22167 -0.733487 -0.20892 -5.77658e-14 -3.6556e-13 -2.31744e-13 -67.4482 27.5597 -8.16443 8.16722 -3.31813 -14.1892 0.0159508 -4.03985 0.5685 1.9765e-10 -9.47198e-10 2.23166e-09 3.3801e-10 -1.63967e-09 3.8571e-09 1.97642e-10 -9.47201e-10 2.23167e-09 -7.73091 5.47488 -0.417314 1.97651e-10 -9.47204e-10 2.23165e-09 -2.90554 0.965183 -0.102902 1.97638e-10 -9.47203e-10 2.23166e-09 -10.2786 0.731801 -0.0259123 1.9765e-10 -9.47203e-10 2.23165e-09 -2.22167 -0.733487 0.20892 -2.03217e-16 0.0 -3.88251e-19 -4.42171 -13.4461 -1.72174 -0.0252558 23.6188 0.464646 -4.7335 -16.5892 -12.479 2.03217e-16 0.0 3.88251e-19 -3.01269 -12.2111 -3.94786 0.0645129 21.4806 -0.441426 3.26543 -14.2537 8.47173
